<svg width="250" height="250" viewBox="0 0 250 250" fill="none" xmlns="http://www.w3.org/2000/svg">
<g clip-path="url(#clip0_620_2)">
<path d="M250 0H0V250H250V0Z" fill="white"/>
<path d="M125 219.375C177.122 219.375 219.375 177.122 219.375 125C219.375 72.8781 177.122 30.625 125 30.625C72.8781 30.625 30.625 72.8781 30.625 125C30.625 177.122 72.8781 219.375 125 219.375Z" fill="#FA0F0F"/>
<path d="M165.711 95.2336H57.3545V162.529H165.711V95.2336Z" fill="white"/>
<path d="M200.437 128.931H151.454C149.268 128.931 147.495 130.704 147.495 132.89V158.669C147.495 160.856 149.268 162.628 151.454 162.628H200.437C202.624 162.628 204.396 160.856 204.396 158.669V132.89C204.396 130.704 202.624 128.931 200.437 128.931Z" fill="white"/>
<path d="M182.365 101.458H141.038V136.875H182.365V101.458Z" fill="white"/>
<path d="M51.2998 95.9388L58.78 95.3377L63.8052 161.428L58.7802 162.018L56.6346 101.782L51.2998 95.9388Z" fill="white"/>
<path d="M115.025 40.8333H121.999V58.1187H115.025V40.8333Z" fill="white"/>
<path d="M127.298 58.1188H109.168V103.127H127.298V58.1188Z" fill="white"/>
<path d="M166.586 86.7713H49.0776C46.949 86.7713 45.2234 88.4968 45.2234 90.6254V93.7971C45.2234 95.9257 46.949 97.6513 49.0776 97.6513H166.586C168.714 97.6513 170.44 95.9257 170.44 93.7971V90.6254C170.44 88.4968 168.714 86.7713 166.586 86.7713Z" fill="white"/>
<path d="M149.46 58.0624L123.696 96.5703C121.35 100.077 122.341 104.744 125.91 106.995L125.91 106.995C129.478 109.246 134.272 108.228 136.619 104.721L162.383 66.2135C164.729 62.707 163.738 58.0397 160.169 55.7889C156.601 53.538 151.806 54.5559 149.46 58.0624Z" fill="white"/>
<path d="M81.6693 175.625C87.0609 175.625 91.4316 171.53 91.4316 166.479C91.4316 161.428 87.0609 157.333 81.6693 157.333C76.2777 157.333 71.907 161.428 71.907 166.479C71.907 171.53 76.2777 175.625 81.6693 175.625Z" fill="white"/>
<path d="M175.388 175.625C180.779 175.625 185.15 171.53 185.15 166.479C185.15 161.428 180.779 157.333 175.388 157.333C169.996 157.333 165.625 161.428 165.625 166.479C165.625 171.53 169.996 175.625 175.388 175.625Z" fill="white"/>
<path d="M99.6897 65.427L81.0015 70.2892L88.9135 98.9602L107.602 94.098L99.6897 65.427Z" fill="white"/>
<path d="M87.4114 57.371L99.6833 65.4835L80.9614 70.3546L87.4114 57.371Z" fill="white"/>
<path d="M88.8363 52.5852L82.7266 54.59L85.5394 62.6718L91.6491 60.667L88.8363 52.5852Z" fill="white"/>
<path d="M69.2085 91.277C75.7554 91.277 81.0627 87.3438 81.0627 82.4919C81.0627 77.64 75.7554 73.7068 69.2085 73.7068C62.6616 73.7068 57.3542 77.64 57.3542 82.4919C57.3542 87.3438 62.6616 91.277 69.2085 91.277Z" fill="white"/>
<path d="M71.4638 68.516C71.618 68.3444 71.8942 68.3165 72.0798 68.454L74.3044 70.1025C74.4894 70.2394 74.5138 70.4887 74.3592 70.6592L71.3146 74.0144C71.1444 74.2021 70.8332 74.2127 70.6557 74.0369L68.7094 72.1112C68.5646 71.9679 68.5596 71.7477 68.6978 71.5939L71.4638 68.516Z" fill="white"/>
<path d="M71.544 73.0451L69.113 71.6643C68.9129 71.5507 68.6442 71.6117 68.5128 71.8006L67.0078 73.9643C66.8764 74.1533 66.9321 74.3985 67.1322 74.5122L69.5632 75.893C69.7633 76.0067 70.032 75.9457 70.1634 75.7567L71.6684 73.593C71.7998 73.4041 71.7441 73.1588 71.544 73.0451Z" fill="white"/>
<path d="M182.057 101.58L194.496 111.654L201.384 131.82H164.247L182.057 101.58Z" fill="white"/>
<path d="M47.1389 101.076H35.1484V103.093H47.1389V101.076Z" fill="white"/>
<path d="M43.3612 117.877H33.2979V119.893H43.3612V117.877Z" fill="white"/>
<path d="M44.4318 134.902H33.2979V136.694H44.4318V134.902Z" fill="white"/>
<path d="M50.6412 154.839H43.5754V156.631H50.6412V154.839Z" fill="white"/>
</g>
<defs>
<clipPath id="clip0_620_2">
<rect width="250" height="250" fill="white"/>
</clipPath>
</defs>
</svg>
