<svg width="250" height="250" viewBox="0 0 250 250" fill="none" xmlns="http://www.w3.org/2000/svg">
<g clip-path="url(#clip0_408_29)">
<path d="M250 0H0V250H250V0Z" fill="white"/>
<path d="M125 219.375C177.122 219.375 219.375 177.122 219.375 125C219.375 72.8781 177.122 30.625 125 30.625C72.8781 30.625 30.625 72.8781 30.625 125C30.625 177.122 72.8781 219.375 125 219.375Z" fill="#2BBBAD"/>
<path d="M165.711 95.2336H57.3545V162.529H165.711V95.2336Z" fill="white"/>
<path d="M200.437 128.931H151.454C149.268 128.931 147.495 130.704 147.495 132.89V158.669C147.495 160.856 149.268 162.628 151.454 162.628H200.437C202.624 162.628 204.396 160.856 204.396 158.669V132.89C204.396 130.704 202.624 128.931 200.437 128.931Z" fill="white"/>
<path d="M182.365 101.458H141.038V136.875H182.365V101.458Z" fill="white"/>
<path d="M51.2998 95.9388L58.78 95.3377L63.8052 161.428L58.7802 162.018L56.6346 101.782L51.2998 95.9388Z" fill="white"/>
<path d="M115.025 40.8333H121.999V58.1187H115.025V40.8333Z" fill="white"/>
<path d="M127.298 58.1188H109.168V103.127H127.298V58.1188Z" fill="white"/>
<path d="M166.586 86.7713H49.0776C46.949 86.7713 45.2234 88.4968 45.2234 90.6254V93.7971C45.2234 95.9257 46.949 97.6513 49.0776 97.6513H166.586C168.714 97.6513 170.44 95.9257 170.44 93.7971V90.6254C170.44 88.4968 168.714 86.7713 166.586 86.7713Z" fill="white"/>
<path d="M149.46 58.0624L123.696 96.5703C121.35 100.077 122.341 104.744 125.91 106.995L125.91 106.995C129.478 109.246 134.272 108.228 136.619 104.721L162.383 66.2135C164.729 62.707 163.738 58.0397 160.169 55.7889C156.601 53.538 151.806 54.5559 149.46 58.0624Z" fill="white"/>
<path d="M81.6693 175.625C87.0609 175.625 91.4316 171.53 91.4316 166.479C91.4316 161.428 87.0609 157.333 81.6693 157.333C76.2777 157.333 71.907 161.428 71.907 166.479C71.907 171.53 76.2777 175.625 81.6693 175.625Z" fill="white"/>
<path d="M175.388 175.625C180.779 175.625 185.15 171.53 185.15 166.479C185.15 161.428 180.779 157.333 175.388 157.333C169.996 157.333 165.625 161.428 165.625 166.479C165.625 171.53 169.996 175.625 175.388 175.625Z" fill="white"/>
<path d="M99.6897 65.427L81.0015 70.2892L88.9135 98.9602L107.602 94.098L99.6897 65.427Z" fill="white"/>
<path d="M87.4114 57.371L99.6833 65.4835L80.9614 70.3546L87.4114 57.371Z" fill="white"/>
<path d="M88.8363 52.5852L82.7266 54.59L85.5394 62.6718L91.6491 60.667L88.8363 52.5852Z" fill="white"/>
<path d="M69.2085 91.277C75.7554 91.277 81.0627 87.3438 81.0627 82.4919C81.0627 77.64 75.7554 73.7068 69.2085 73.7068C62.6616 73.7068 57.3542 77.64 57.3542 82.4919C57.3542 87.3438 62.6616 91.277 69.2085 91.277Z" fill="white"/>
<path d="M71.4638 68.516C71.618 68.3444 71.8942 68.3165 72.0798 68.454L74.3044 70.1025C74.4894 70.2394 74.5138 70.4887 74.3592 70.6592L71.3146 74.0144C71.1444 74.2021 70.8332 74.2127 70.6557 74.0369L68.7094 72.1112C68.5646 71.9679 68.5596 71.7477 68.6978 71.5939L71.4638 68.516Z" fill="white"/>
<path d="M71.544 73.0451L69.113 71.6643C68.9129 71.5507 68.6442 71.6117 68.5128 71.8006L67.0078 73.9643C66.8764 74.1533 66.9321 74.3985 67.1322 74.5122L69.5632 75.893C69.7633 76.0067 70.032 75.9457 70.1634 75.7567L71.6684 73.593C71.7998 73.4041 71.7441 73.1588 71.544 73.0451Z" fill="white"/>
<path d="M182.057 101.58L194.496 111.654L201.384 131.82H164.247L182.057 101.58Z" fill="white"/>
<path d="M47.1389 101.076H35.1484V103.093H47.1389V101.076Z" fill="white"/>
<path d="M43.3612 117.877H33.2979V119.893H43.3612V117.877Z" fill="white"/>
<path d="M44.4318 134.902H33.2979V136.694H44.4318V134.902Z" fill="white"/>
<path d="M50.6412 154.839H43.5754V156.631H50.6412V154.839Z" fill="white"/>
<path d="M69.4173 129.329L67.6789 130.96L67.0441 134.583H63.7043L66.1654 120.365H69.515L68.4504 126.449L69.8373 124.759L73.5287 120.365H77.8646L71.9662 126.8L75.2377 134.583H71.4191L69.4173 129.329ZM79.4662 134.583H76.2435L78.0793 124.017H81.3021L79.4662 134.583ZM78.3627 121.351C78.3496 120.876 78.5156 120.479 78.8606 120.16C79.2123 119.84 79.6354 119.681 80.1302 119.681C80.6314 119.681 81.0481 119.824 81.3802 120.111C81.7187 120.397 81.8946 120.771 81.9075 121.234C81.9206 121.715 81.7545 122.116 81.4095 122.435C81.0643 122.748 80.6412 122.904 80.14 122.904C79.6516 122.904 79.235 122.764 78.89 122.484C78.5514 122.197 78.3756 121.82 78.3627 121.351ZM87.5325 121.39L87.0735 124.017H88.7629L88.3627 126.302H86.6731L85.8529 131.156C85.8073 131.488 85.8268 131.738 85.9114 131.908C86.0025 132.077 86.2239 132.168 86.5754 132.181C86.7123 132.188 86.9921 132.171 87.4154 132.132L87.181 134.515C86.6406 134.691 86.0643 134.772 85.4525 134.759C84.4564 134.746 83.7108 134.453 83.2162 133.88C82.7212 133.307 82.5196 132.529 82.6106 131.546L83.47 126.302H82.1614L82.5521 124.017H83.8606L84.3196 121.39H87.5325ZM94.222 134.583C94.1308 134.329 94.0852 134.01 94.0852 133.626C93.3627 134.421 92.5 134.805 91.4975 134.779C90.5793 134.766 89.8177 134.46 89.2123 133.861C88.6066 133.262 88.3235 132.536 88.3627 131.683C88.3952 130.537 88.8737 129.658 89.7981 129.046C90.7227 128.428 91.9856 128.119 93.5873 128.119L94.6614 128.138L94.7787 127.542L94.8177 127.025C94.7916 126.432 94.4954 126.126 93.9289 126.107C93.2258 126.094 92.7929 126.481 92.6302 127.269L89.4075 127.279C89.44 126.569 89.6712 125.954 90.1008 125.433C90.5306 124.906 91.1133 124.502 91.8489 124.222C92.5912 123.936 93.3789 123.802 94.2123 123.822C95.0129 123.841 95.7129 124.01 96.3118 124.329C96.9173 124.642 97.3698 125.081 97.6691 125.648C97.9687 126.208 98.0827 126.855 98.011 127.591L97.22 132.562L97.1712 133.167C97.1452 133.649 97.2071 134.059 97.3566 134.398L97.347 134.583H94.222ZM92.386 132.454C93.0435 132.48 93.6198 132.191 94.1146 131.585L94.4368 129.886L93.6066 129.876C93.0925 129.889 92.6498 130.042 92.2787 130.335C91.9075 130.622 91.6893 131.016 91.6243 131.517C91.5918 131.784 91.6406 132.005 91.7708 132.181C91.9075 132.35 92.1127 132.441 92.386 132.454ZM103.421 124.007L103.197 125.277C104.043 124.274 105.062 123.786 106.253 123.812C107.23 123.831 107.956 124.196 108.431 124.906C108.913 125.609 109.089 126.618 108.958 127.933L107.845 134.583H104.622L105.745 127.913C105.771 127.686 105.778 127.477 105.765 127.288C105.719 126.67 105.355 126.361 104.671 126.361C104.105 126.348 103.587 126.598 103.119 127.113L101.8 134.583H98.5873L100.423 124.017L103.421 124.007ZM110.218 129.281C110.42 127.614 110.928 126.279 111.741 125.277C112.555 124.274 113.616 123.789 114.925 123.822C115.824 123.848 116.569 124.225 117.161 124.954L118.187 119.583H121.41L118.812 134.583H115.95L116.087 133.441C115.3 134.365 114.424 134.814 113.46 134.788C112.445 134.775 111.647 134.401 111.068 133.665C110.495 132.923 110.189 131.93 110.15 130.687C110.137 130.277 110.15 129.876 110.189 129.486L110.218 129.281ZM113.421 129.495C113.369 129.912 113.346 130.277 113.353 130.589C113.353 131.67 113.717 132.22 114.447 132.24C115.078 132.259 115.641 131.956 116.136 131.331L116.859 127.279C116.644 126.68 116.214 126.37 115.57 126.351C114.971 126.338 114.486 126.598 114.115 127.132C113.75 127.66 113.519 128.447 113.421 129.495ZM126.663 134.583C126.572 134.329 126.527 134.01 126.527 133.626C125.804 134.421 124.941 134.805 123.939 134.779C123.021 134.766 122.259 134.46 121.654 133.861C121.048 133.262 120.765 132.536 120.804 131.683C120.837 130.537 121.315 129.658 122.24 129.046C123.164 128.428 124.427 128.119 126.029 128.119L127.103 128.138L127.22 127.542L127.259 127.025C127.233 126.432 126.937 126.126 126.37 126.107C125.667 126.094 125.234 126.481 125.072 127.269L121.849 127.279C121.881 126.569 122.113 125.954 122.542 125.433C122.972 124.906 123.555 124.502 124.29 124.222C125.032 123.936 125.82 123.802 126.654 123.822C127.454 123.841 128.154 124.01 128.753 124.329C129.359 124.642 129.811 125.081 130.111 125.648C130.41 126.208 130.524 126.855 130.452 127.591L129.661 132.562L129.613 133.167C129.587 133.649 129.648 134.059 129.798 134.398L129.788 134.583H126.663ZM124.827 132.454C125.485 132.48 126.061 132.191 126.556 131.585L126.878 129.886L126.048 129.876C125.534 129.889 125.091 130.042 124.72 130.335C124.349 130.622 124.131 131.016 124.066 131.517C124.033 131.784 124.082 132.005 124.212 132.181C124.349 132.35 124.554 132.441 124.827 132.454Z" fill="#2BBBAD"/>
<path d="M132.66 134.105C132.66 133.955 132.712 133.828 132.816 133.724C132.92 133.613 133.047 133.558 133.197 133.558C133.346 133.558 133.473 133.613 133.578 133.724C133.688 133.828 133.744 133.955 133.744 134.105C133.744 134.255 133.688 134.381 133.578 134.486C133.473 134.59 133.346 134.642 133.197 134.642C133.047 134.642 132.92 134.59 132.816 134.486C132.712 134.381 132.66 134.255 132.66 134.105ZM145.99 131.175C145.99 130.57 145.846 130.059 145.56 129.642C145.28 129.219 144.834 128.848 144.222 128.529C143.617 128.203 142.699 127.871 141.468 127.532C140.238 127.194 139.313 126.852 138.695 126.507C138.083 126.162 137.634 125.762 137.347 125.306C137.061 124.85 136.917 124.297 136.917 123.646C136.917 122.611 137.354 121.774 138.226 121.136C139.098 120.491 140.234 120.169 141.634 120.169C142.546 120.169 143.363 120.348 144.085 120.706C144.814 121.058 145.378 121.556 145.775 122.2C146.172 122.839 146.371 123.561 146.371 124.369H145.843C145.843 123.307 145.453 122.432 144.671 121.741C143.89 121.045 142.878 120.697 141.634 120.697C140.384 120.697 139.372 120.977 138.597 121.536C137.829 122.09 137.445 122.786 137.445 123.626C137.445 124.479 137.78 125.166 138.451 125.687C139.121 126.208 140.228 126.67 141.771 127.074C143.314 127.471 144.443 127.933 145.16 128.46C146.071 129.131 146.527 130.029 146.527 131.156C146.527 131.872 146.325 132.506 145.921 133.06C145.518 133.607 144.945 134.03 144.203 134.329C143.46 134.629 142.627 134.779 141.703 134.779C140.674 134.779 139.749 134.609 138.929 134.271C138.109 133.926 137.49 133.437 137.074 132.806C136.663 132.175 136.458 131.429 136.458 130.57H136.986C136.986 131.735 137.422 132.64 138.294 133.285C139.167 133.929 140.303 134.251 141.703 134.251C142.946 134.251 143.971 133.968 144.779 133.402C145.586 132.829 145.99 132.087 145.99 131.175ZM159.447 134.583H158.919V127.532H149.837V134.583H149.31V120.365H149.837V127.005H158.919V120.365H159.447V134.583ZM173.421 128.538C173.421 129.769 173.2 130.859 172.757 131.81C172.321 132.754 171.696 133.486 170.882 134.007C170.068 134.521 169.131 134.779 168.07 134.779C166.468 134.779 165.173 134.209 164.183 133.07C163.193 131.93 162.699 130.394 162.699 128.46V126.41C162.699 125.186 162.917 124.098 163.353 123.148C163.796 122.197 164.424 121.465 165.238 120.95C166.058 120.43 166.995 120.169 168.05 120.169C169.111 120.169 170.049 120.43 170.863 120.95C171.683 121.465 172.314 122.2 172.757 123.157C173.2 124.108 173.421 125.192 173.421 126.41V128.538ZM172.894 126.39C172.894 124.671 172.458 123.294 171.585 122.259C170.713 121.217 169.535 120.697 168.05 120.697C166.585 120.697 165.417 121.214 164.544 122.249C163.672 123.278 163.236 124.681 163.236 126.458V128.538C163.236 129.671 163.431 130.674 163.822 131.546C164.219 132.412 164.782 133.079 165.511 133.548C166.24 134.017 167.093 134.251 168.07 134.251C169.554 134.251 170.729 133.734 171.595 132.699C172.461 131.663 172.894 130.251 172.894 128.46V126.39ZM177.201 128.577V134.583H176.673V120.365H181.117C182.568 120.365 183.695 120.732 184.496 121.468C185.303 122.197 185.707 123.213 185.707 124.515C185.707 125.804 185.313 126.8 184.525 127.503C183.744 128.206 182.63 128.564 181.185 128.577H177.201ZM177.201 128.05H181.117C182.399 128.05 183.395 127.741 184.105 127.122C184.821 126.504 185.179 125.641 185.179 124.535C185.179 123.389 184.821 122.497 184.105 121.859C183.395 121.214 182.399 120.892 181.117 120.892H177.201V128.05Z" fill="black"/>
</g>
<defs>
<clipPath id="clip0_408_29">
<rect width="250" height="250" fill="white"/>
</clipPath>
</defs>
</svg>
